<?xml version="1.0" encoding="UTF-8" standalone="no"?>
<!-- Generator: Adobe Illustrator 28.1.0, SVG Export Plug-In . SVG Version: 6.00 Build 0)  -->

<svg
   version="1.1"
   id="Layer_1"
   x="0px"
   y="0px"
   viewBox="0 0 195 195.00001"
   xml:space="preserve"
   sodipodi:docname="docusign.svg"
   width="195"
   height="195"
   inkscape:version="1.3.2 (091e20e, 2023-11-25, custom)"
   xmlns:inkscape="http://www.inkscape.org/namespaces/inkscape"
   xmlns:sodipodi="http://sodipodi.sourceforge.net/DTD/sodipodi-0.dtd"
   xmlns="http://www.w3.org/2000/svg"
   xmlns:svg="http://www.w3.org/2000/svg"><defs
   id="defs14" /><sodipodi:namedview
   id="namedview14"
   pagecolor="#505050"
   bordercolor="#eeeeee"
   borderopacity="1"
   inkscape:showpageshadow="0"
   inkscape:pageopacity="0"
   inkscape:pagecheckerboard="0"
   inkscape:deskcolor="#505050"
   inkscape:zoom="2.0516667"
   inkscape:cx="145.97888"
   inkscape:cy="96.263201"
   inkscape:window-width="1920"
   inkscape:window-height="1009"
   inkscape:window-x="1912"
   inkscape:window-y="-8"
   inkscape:window-maximized="1"
   inkscape:current-layer="g12" />
<style
   type="text/css"
   id="style1">
	.st0{fill:#4C00FF;}
	.st1{fill:#FF5252;}
</style>
<g
   id="g12">
	<g
   id="g10">
		
	</g>
	<g
   id="g11"
   transform="translate(-1026.4825)">
		<path
   d="m 1185.7,175.6 v 1.8 h -4.1 v 10.9 h -2 v -10.9 h -4.1 v -1.8 z m 14.3,12.7 h -2 v -10 l -3.9,7.5 h -1.1 l -3.9,-7.4 v 9.9 h -2 v -12.7 h 2.6 l 3.8,7.3 3.8,-7.3 h 2.6 z"
   id="path10" />
	</g>
</g>
<g
   id="g14">
	<path
   class="st0"
   d="M 139.5,139.5 V 189 c 0,2.6 -2.1,4.7 -4.7,4.7 H 4.7 C 2.1,193.7 0,191.6 0,189 V 59 c 0,-2.6 2.1,-4.7 4.7,-4.7 h 49.4 v 80.5 c 0,2.6 2.1,4.7 4.7,4.7 z"
   id="path12" />
	<path
   class="st1"
   d="m 193.7,69.7 c 0,41.6 -24.3,69.7 -54.2,69.8 V 87.1 c 0,-1.5 -0.6,-3 -1.7,-4 L 110.6,55.9 c -1.1,-1.1 -2.5,-1.7 -4,-1.7 H 54.2 V 4.8 c 0,-2.6 2.1,-4.7 4.7,-4.7 h 73.3 C 167,0 193.7,28 193.7,69.7 Z"
   id="path13" />
	<path
   d="m 137.8,83 c 1.1,1.1 1.7,2.5 1.7,4 v 52.4 H 58.9 c -2.6,0 -4.7,-2.1 -4.7,-4.7 V 54.2 h 52.4 c 1.5,0 3,0.6 4,1.7 z"
   id="path14" />
</g>
</svg>
