<?xml version="1.0" encoding="UTF-8" standalone="no"?>
<!-- Created with Inkscape (http://www.inkscape.org/) -->

<svg
   width="70.121971mm"
   height="68.544571mm"
   viewBox="0 0 70.121971 68.544571"
   version="1.1"
   id="svg1"
   xml:space="preserve"
   inkscape:version="1.4.2 (ebf0e940d0, 2025-05-08)"
   sodipodi:docname="jsf.svg"
   xmlns:inkscape="http://www.inkscape.org/namespaces/inkscape"
   xmlns:sodipodi="http://sodipodi.sourceforge.net/DTD/sodipodi-0.dtd"
   xmlns="http://www.w3.org/2000/svg"
   xmlns:svg="http://www.w3.org/2000/svg"><sodipodi:namedview
     id="namedview1"
     pagecolor="#505050"
     bordercolor="#eeeeee"
     borderopacity="1"
     inkscape:showpageshadow="0"
     inkscape:pageopacity="0"
     inkscape:pagecheckerboard="0"
     inkscape:deskcolor="#505050"
     inkscape:document-units="mm"
     inkscape:zoom="0.70881658"
     inkscape:cx="343.53034"
     inkscape:cy="14.813423"
     inkscape:window-width="1920"
     inkscape:window-height="1052"
     inkscape:window-x="1920"
     inkscape:window-y="0"
     inkscape:window-maximized="1"
     inkscape:current-layer="layer1" /><defs
     id="defs1" /><g
     inkscape:label="Calque 1"
     inkscape:groupmode="layer"
     id="layer1"
     transform="translate(-69.932863,-113.95511)"><g
       id="g3"
       transform="matrix(10.415627,0,0,10.415627,-988.58289,-1395.654)"><circle
         style="fill:#cadc06;fill-opacity:1;stroke-width:0.264583"
         id="path1"
         cx="103.18396"
         cy="146.07877"
         r="0.32958704" /><path
         style="fill:none;fill-opacity:1;stroke:#cadc06;stroke-width:0.1;stroke-linecap:round;stroke-dasharray:none;stroke-opacity:1"
         d="m 102.94167,146.23605 c 0,0 -1.53655,2.30832 -1.22131,4.90903"
         id="path2"
         sodipodi:nodetypes="cc" /><path
         style="fill:none;fill-opacity:1;stroke:#cadc06;stroke-width:0.1;stroke-linecap:round;stroke-dasharray:none;stroke-opacity:1"
         d="m 108.07735,144.98694 c -4.68619,0.95938 -4.69673,0.95938 -4.69673,0.95938"
         id="path3" /></g><path
       style="fill:#f09600;fill-opacity:1;stroke:none;stroke-width:1.04156;stroke-linecap:round;stroke-linejoin:round;stroke-dasharray:none;stroke-opacity:1"
       d="m 122.74992,119.45584 c -12.72217,2.50256 -13.3895,2.64025 -31.279272,6.38582 0.06249,1.7392 -0.708263,5.88868 -7.130538,4.65203 -3.748064,6.35687 -7.25313,15.3892 -8.733608,21.30121 7.124185,-0.33226 52.544648,3.962 47.143418,-32.33906 z"
       id="path4"
       sodipodi:nodetypes="ccccc" /><path
       style="fill:#36a8ec;fill-opacity:1;stroke:none;stroke-width:1.04156;stroke-linecap:round;stroke-linejoin:round;stroke-dasharray:none;stroke-opacity:1"
       d="m 75.060828,154.04572 c -1.795342,6.67943 -2.949081,16.47419 -2.134996,25.0702 28.568188,12.06734 77.744008,-8.0117 65.086938,-62.32607 -5.96753,1.19374 -5.87941,1.13051 -12.67977,2.33925 -0.0833,3.14948 8.80568,36.97516 -50.272172,34.91662 z"
       id="path5"
       sodipodi:nodetypes="ccccc" /></g></svg>
