<?xml version="1.0" encoding="UTF-8" standalone="no"?>
<svg
   width="37"
   height="40"
   viewBox="0 0 37 40"
   fill="none"
   version="1.1"
   id="svg23"
   sodipodi:docname="primefaces.svg"
   inkscape:version="1.3.2 (091e20e, 2023-11-25, custom)"
   xmlns:inkscape="http://www.inkscape.org/namespaces/inkscape"
   xmlns:sodipodi="http://sodipodi.sourceforge.net/DTD/sodipodi-0.dtd"
   xmlns="http://www.w3.org/2000/svg"
   xmlns:svg="http://www.w3.org/2000/svg">
  <defs
     id="defs23" />
  <sodipodi:namedview
     id="namedview23"
     pagecolor="#505050"
     bordercolor="#eeeeee"
     borderopacity="1"
     inkscape:showpageshadow="0"
     inkscape:pageopacity="0"
     inkscape:pagecheckerboard="0"
     inkscape:deskcolor="#505050"
     inkscape:zoom="32"
     inkscape:cx="17.171875"
     inkscape:cy="14.546875"
     inkscape:window-width="1920"
     inkscape:window-height="1009"
     inkscape:window-x="1912"
     inkscape:window-y="-8"
     inkscape:window-maximized="1"
     inkscape:current-layer="svg23" />
  <mask
     id="mask0_0:904"
     maskUnits="userSpaceOnUse"
     x="0"
     y="0"
     width="171"
     height="39">
    <path
       fill-rule="evenodd"
       clip-rule="evenodd"
       d="M 0,38.6022 H 170.696 V 0.461395 H 0 Z"
       fill="#ffffff"
       id="path2" />
  </mask>
  <path
     fill-rule="evenodd"
     clip-rule="evenodd"
     d="m 10.101208,0 -4.0569998,4.48432 -5.8843,-1.12014 3.2744,11.42922 2.1772,13.924 8.5840998,10.3443 h 7.5576 l 8.4759,-10.316 2.2849,-14.0564 3.4909,-11.32512 -5.8306,1.12014 L 25.963708,0 Z"
     fill="#263238"
     id="path13" />
  <path
     d="m 25.235308,17.9119 -2.2658,-0.5051 1.7623,2.5257 v 7.8299 l 6.0421,-5.0515 v -8.5876 l -2.7693,1.0103 z"
     fill="#d0d8dc"
     id="path14" />
  <path
     d="m 11.137108,17.9119 2.2658,-0.5051 -1.7623,2.5257 v 7.8299 L 5.5986082,22.7109 v -8.5876 l 2.7692,1.0103 z"
     fill="#d0d8dc"
     id="path15" />
  <path
     fill-rule="evenodd"
     clip-rule="evenodd"
     d="m 12.395908,20.4377 2.014,-3.0309 1.2588,0.7577 h 5.0351 l 1.2587,-0.7577 2.0141,3.0309 v 11.366 l -1.5106,2.2732 -1.7622,1.768 h -5.0351 l -1.7623,-1.768 -1.5105,-2.2732 z"
     fill="#d0d8dc"
     id="path16" />
  <path
     d="m 24.731808,32.5614 3.2728,-3.2835 v -3.2835 l -3.2728,2.7783 z"
     fill="#d0d8dc"
     id="path17" />
  <path
     d="M 11.640608,32.5614 8.3679082,29.2779 v -3.2835 l 3.2726998,2.7783 z"
     fill="#d0d8dc"
     id="path18" />
  <path
     fill-rule="evenodd"
     clip-rule="evenodd"
     d="m 14.913408,2.75729 -2.014,4.79897 3.2728,9.59794 h 1.5105 V 2.75729 Z m 3.7763,0 V 17.1542 h 1.7623 l 3.021,-9.59794 -2.014,-4.79897 z"
     fill="#d0d8dc"
     id="path19" />
  <path
     d="M 16.172208,17.1542 5.3468082,13.113 l -1.5105,-6.31448 9.6504998,0.78404 3.2169,9.57164 z"
     fill="#d0d8dc"
     id="path20" />
  <path
     d="m 20.452008,17.1542 10.8254,-4.0412 1.5105,-6.31448 -9.6505,0.78404 -3.2169,9.57164 z"
     fill="#d0d8dc"
     id="path21" />
  <path
     d="m 23.976508,6.79853 5.2869,-0.50516 -3.5246,-3.53608 h -3.5245 z"
     fill="#d0d8dc"
     id="path22" />
  <path
     d="M 12.395908,6.79853 7.1091082,6.29337 10.633608,2.75729 h 3.5246 z"
     fill="#d0d8dc"
     id="path23" />
</svg>
