<?xml version="1.0" encoding="UTF-8" standalone="no"?>
<svg
   fill="none"
   height="984"
   viewBox="1.372 -0.18543865 105.80456 128.44652"
   width="815"
   version="1.1"
   id="svg4"
   sodipodi:docname="prisma.svg"
   inkscape:version="1.3.2 (091e20e, 2023-11-25, custom)"
   xmlns:inkscape="http://www.inkscape.org/namespaces/inkscape"
   xmlns:sodipodi="http://sodipodi.sourceforge.net/DTD/sodipodi-0.dtd"
   xmlns="http://www.w3.org/2000/svg"
   xmlns:svg="http://www.w3.org/2000/svg">
  <defs
     id="defs4" />
  <sodipodi:namedview
     id="namedview4"
     pagecolor="#505050"
     bordercolor="#eeeeee"
     borderopacity="1"
     inkscape:showpageshadow="0"
     inkscape:pageopacity="0"
     inkscape:pagecheckerboard="0"
     inkscape:deskcolor="#505050"
     inkscape:zoom="0.45254834"
     inkscape:cx="677.27572"
     inkscape:cy="814.27766"
     inkscape:window-width="1920"
     inkscape:window-height="1009"
     inkscape:window-x="1912"
     inkscape:window-y="-8"
     inkscape:window-maximized="1"
     inkscape:current-layer="g4" />
  <g
     fill="#0c344b"
     id="g4">
    <path
       clip-rule="evenodd"
       d="m 96.763996,101.529 -57.479,17 c -1.756,0.52 -3.439,-0.999 -3.07,-2.77 l 20.534,-98.34 c 0.384,-1.838 2.926,-2.13 3.728,-0.427 l 38.02,80.736 c 0.717,1.523 -0.101,3.319 -1.733,3.801 z M 106.621,97.519 62.598996,4.037 V 4.035 c -1.11437,-2.3452423 -3.425835,-3.88980345 -6.019,-4.022 -2.679,-0.156 -5.079,1.136 -6.433,3.335 L 2.4029958,80.678 c -1.48074599,2.384738 -1.44800164,5.410862 0.084,7.763 l 23.3380002,36.152 c 1.391,2.158 3.801,3.407 6.306,3.407 0.71,0 1.424,-0.1 2.126,-0.308 L 102.001,107.656 c 2.06332,-0.60453 3.76322,-2.07389 4.66,-4.028 0.88554,-1.94351 0.87091,-4.178249 -0.04,-6.11 z"
       fill-rule="evenodd"
       id="path4"
       sodipodi:nodetypes="cccccccccccccccsccccc" />
  </g>
</svg>
